# xmcd CD database file generated by Grip 3.2.0
# 
# Track frame offsets:
#       150
#       23247
#       41620
#       54850
#       73944
#       92561
#       109814
#       131426
#       147303
#       168564
#       190770
#       203050
#       221370
#       238119
# 
# Disc length: 3388 seconds
# 
# Revision: 3
# Processed by: cddbd v1.5.2PL0 Copyright (c) Steve Scherf et al.
# Submitted via: Grip 3.2.0
# 
DISCID=c60d3a0e
DTITLE=Nena feat. Nena - 20 Jahre - Das Jubiläumsalbum
DYEAR=2004
DGENRE=Blues
TTITLE0=Nena - 99 Luftballons (New Version/Album Version 2)
TTITLE1=Nena mit Kim Wilde - Anyplace, Anywhere, Anytime (New Version)
TTITLE2=Nena - Nur geträumt (New Version)
TTITLE3=Nena - Leuchtturm (New Version)
TTITLE4=Nena - ? (Fragezeichen) (New Version)
TTITLE5=Nena mit Witt - Wunder geschehen (New Version) (mit Witt)
TTITLE6=Nena mit Udo Lindenberg - Jetzt bist du weg (New Version)
TTITLE7=Nena - Lass mich dein Pirat sein (New Version)
TTITLE8=Nena - Es regnet (New Version)
TTITLE9=Nena - Lichtarbeiter (New Version)
TTITLE10=Nena - Vollmond (New Version)
TTITLE11=Nena - Irgendwie, irgendwo, irgendwann (New Version)
TTITLE12=Nena - Ich häng immer noch an Dir (New Version)
TTITLE13=Nena mit Söhne Mannheims - Carpe Diem
EXTD=
EXTT0=
EXTT1=
EXTT2=
EXTT3=
EXTT4=
EXTT5=
EXTT6=
EXTT7=
EXTT8=
EXTT9=
EXTT10=
EXTT11=
EXTT12=
EXTT13=
PLAYORDER=
